<?xml version="1.0" encoding="utf-8"?>
<svg xmlns="http://www.w3.org/2000/svg">
  <defs>
    <symbol id="home" viewBox="0 0 32 32">
        <path d="M 16 2.59375 L 15.28125 3.28125 L 2.28125 16.28125 L 3.71875 17.71875 L 5 16.4375 L 5 28 L 14 28 L 14 18 L 18 18 L 18 28 L 27 28 L 27 16.4375 L 28.28125 17.71875 L 29.71875 16.28125 L 16.71875 3.28125 Z M 16 5.4375 L 25 14.4375 L 25 26 L 20 26 L 20 16 L 12 16 L 12 26 L 7 26 L 7 14.4375 Z"
              style="fill: #fcfcfa"/>
    </symbol>
    <symbol id="home-dark" viewBox="0 0 32 32">
        <path d="M 16 2.59375 L 15.28125 3.28125 L 2.28125 16.28125 L 3.71875 17.71875 L 5 16.4375 L 5 28 L 14 28 L 14 18 L 18 18 L 18 28 L 27 28 L 27 16.4375 L 28.28125 17.71875 L 29.71875 16.28125 L 16.71875 3.28125 Z M 16 5.4375 L 25 14.4375 L 25 26 L 20 26 L 20 16 L 12 16 L 12 26 L 7 26 L 7 14.4375 Z"
              style="fill: #221f22"/>
    </symbol>

    <symbol id="scroll" viewBox="0 0 32 32">
        <path d="M 10 4 C 8.355 4 7 5.355 7 7 L 7 21 L 4 21 L 4 25 C 4 26.645 5.355 28 7 28 L 21 28 L 21.03125 28 C 22.66025 27.984 24 26.633 24 25 L 24 11 L 28 11 L 28 7 C 28 5.355 26.645 4 25 4 L 10 4 z M 10 6 L 22.1875 6 C 22.0745 6.316 22 6.648 22 7 L 22 25 C 22 25.566 21.566 26 21 26 C 20.437 26.008 20.008 25.562 20 25 L 19.96875 21 L 9 21 L 9 7 C 9 6.434 9.434 6 10 6 z M 25 6 C 25.566 6 26 6.434 26 7 L 26 9 L 24 9 L 24 7 C 24 6.434 24.434 6 25 6 z M 6 23 L 14 23 L 17.96875 23 L 18 23 L 18 25 L 18 25.03125 C 18.004 25.37525 18.0745 25.691 18.1875 26 L 7 26 C 6.434 26 6 25.566 6 25 L 6 23 z"
              style="fill: #fcfcfa"/>
    </symbol>
    <symbol id="scroll-dark" viewBox="0 0 32 32">
        <path d="M 10 4 C 8.355 4 7 5.355 7 7 L 7 21 L 4 21 L 4 25 C 4 26.645 5.355 28 7 28 L 21 28 L 21.03125 28 C 22.66025 27.984 24 26.633 24 25 L 24 11 L 28 11 L 28 7 C 28 5.355 26.645 4 25 4 L 10 4 z M 10 6 L 22.1875 6 C 22.0745 6.316 22 6.648 22 7 L 22 25 C 22 25.566 21.566 26 21 26 C 20.437 26.008 20.008 25.562 20 25 L 19.96875 21 L 9 21 L 9 7 C 9 6.434 9.434 6 10 6 z M 25 6 C 25.566 6 26 6.434 26 7 L 26 9 L 24 9 L 24 7 C 24 6.434 24.434 6 25 6 z M 6 23 L 14 23 L 17.96875 23 L 18 23 L 18 25 L 18 25.03125 C 18.004 25.37525 18.0745 25.691 18.1875 26 L 7 26 C 6.434 26 6 25.566 6 25 L 6 23 z"
              style="fill: #221f22"/>
    </symbol>

    <symbol id="teaching" viewBox="0 0 32 32">
        <path d="M 4 6 L 4 8 L 26 8 L 26 24 L 12 24 L 12 26 L 30 26 L 30 24 L 28 24 L 28 6 L 4 6 z M 8.0019531 9 C 5.8032706 9 4 10.802666 4 13 C 4 15.198683 5.8040743 17 8.0019531 17 C 10.197134 17 12 15.198683 12 13 C 12 10.802666 10.19794 9 8.0019531 9 z M 14 10 L 14 12 L 19 12 L 19 10 L 14 10 z M 21 10 L 21 12 L 24 12 L 24 10 L 21 10 z M 8.0019531 11 C 9.1159662 11 10 11.883334 10 13 C 10 14.119317 9.1167719 15 8.0019531 15 C 6.881832 15 6 14.119317 6 13 C 6 11.883334 6.8826357 11 8.0019531 11 z M 14 14 L 14 16 L 24 16 L 24 14 L 14 14 z M 4 18 L 4 26 L 6 26 L 6 20 L 9 20 L 9 26 L 11 26 L 11 20.658203 L 13.064453 21.75 C 13.648752 22.060158 14.351587 22.058921 14.935547 21.75 L 14.935547 21.751953 L 18.466797 19.884766 L 17.533203 18.115234 L 14.001953 19.982422 L 10.90625 18.347656 C 10.475078 18.120046 9.9935054 18 9.5039062 18 L 4 18 z"
              style="fill: #fcfcfa"/>
    </symbol>
    <symbol id="teaching-dark" viewBox="0 0 32 32">
        <path d="M 4 6 L 4 8 L 26 8 L 26 24 L 12 24 L 12 26 L 30 26 L 30 24 L 28 24 L 28 6 L 4 6 z M 8.0019531 9 C 5.8032706 9 4 10.802666 4 13 C 4 15.198683 5.8040743 17 8.0019531 17 C 10.197134 17 12 15.198683 12 13 C 12 10.802666 10.19794 9 8.0019531 9 z M 14 10 L 14 12 L 19 12 L 19 10 L 14 10 z M 21 10 L 21 12 L 24 12 L 24 10 L 21 10 z M 8.0019531 11 C 9.1159662 11 10 11.883334 10 13 C 10 14.119317 9.1167719 15 8.0019531 15 C 6.881832 15 6 14.119317 6 13 C 6 11.883334 6.8826357 11 8.0019531 11 z M 14 14 L 14 16 L 24 16 L 24 14 L 14 14 z M 4 18 L 4 26 L 6 26 L 6 20 L 9 20 L 9 26 L 11 26 L 11 20.658203 L 13.064453 21.75 C 13.648752 22.060158 14.351587 22.058921 14.935547 21.75 L 14.935547 21.751953 L 18.466797 19.884766 L 17.533203 18.115234 L 14.001953 19.982422 L 10.90625 18.347656 C 10.475078 18.120046 9.9935054 18 9.5039062 18 L 4 18 z"
              style="fill: #221f22"/>
    </symbol>

    <symbol id="coffee" viewBox="0 0 32 32">
        <path d="M 12 2 L 12 6 L 14 6 L 14 2 Z M 16 3 L 16 6 L 18 6 L 18 3 Z M 6 7 L 6 25 C 6 26.644531 7.355469 28 9 28 L 21 28 C 22.644531 28 24 26.644531 24 25 L 24 20 L 26 20 C 27.644531 20 29 18.644531 29 17 L 29 14 C 29 12.355469 27.644531 11 26 11 L 24 11 L 24 7 Z M 8 9 L 22 9 L 22 25 C 22 25.554688 21.554688 26 21 26 L 9 26 C 8.445313 26 8 25.554688 8 25 Z M 24 13 L 26 13 C 26.554688 13 27 13.445313 27 14 L 27 17 C 27 17.554688 26.554688 18 26 18 L 24 18 Z"
              style="fill: #fcfcfa"/>
    </symbol>
    <symbol id="coffee-dark" viewBox="0 0 32 32">
        <path d="M 12 2 L 12 6 L 14 6 L 14 2 Z M 16 3 L 16 6 L 18 6 L 18 3 Z M 6 7 L 6 25 C 6 26.644531 7.355469 28 9 28 L 21 28 C 22.644531 28 24 26.644531 24 25 L 24 20 L 26 20 C 27.644531 20 29 18.644531 29 17 L 29 14 C 29 12.355469 27.644531 11 26 11 L 24 11 L 24 7 Z M 8 9 L 22 9 L 22 25 C 22 25.554688 21.554688 26 21 26 L 9 26 C 8.445313 26 8 25.554688 8 25 Z M 24 13 L 26 13 C 26.554688 13 27 13.445313 27 14 L 27 17 C 27 17.554688 26.554688 18 26 18 L 24 18 Z"
              style="fill: #221f22"/>
    </symbol>
    <symbol id="blog" viewBox="0 0 32 32">
        <path d="M 3 6 L 3 26 L 12.585938 26 L 16 29.414063 L 19.414063 26 L 29 26 L 29 6 Z M 5 8 L 27 8 L 27 24 L 18.585938 24 L 16 26.585938 L 13.414063 24 L 5 24 Z M 9 11 L 9 13 L 23 13 L 23 11 Z M 9 15 L 9 17 L 23 17 L 23 15 Z M 9 19 L 9 21 L 19 21 L 19 19 Z"
              style="fill: #fcfcfa"/>
    </symbol>
    <symbol id="blog-dark" viewBox="0 0 32 32">
        <path d="M 3 6 L 3 26 L 12.585938 26 L 16 29.414063 L 19.414063 26 L 29 26 L 29 6 Z M 5 8 L 27 8 L 27 24 L 18.585938 24 L 16 26.585938 L 13.414063 24 L 5 24 Z M 9 11 L 9 13 L 23 13 L 23 11 Z M 9 15 L 9 17 L 23 17 L 23 15 Z M 9 19 L 9 21 L 19 21 L 19 19 Z"
              style="fill: #221f22"/>
    </symbol>

    <symbol id="ghub" viewBox="0 0 32 32">
        <path d="M 5 5 L 5 27 L 27 27 L 27 5 L 5 5 z M 7 7 L 25 7 L 25 25 L 7 25 L 7 7 z M 15.908203 9 C 11.989203 9 9 11.974766 9 15.884766 C 9 19.017766 10.967203 21.699578 13.783203 22.642578 C 14.148203 22.706578 14.275391 22.482781 14.275391 22.300781 C 14.275391 22.126781 14.267578 21.159453 14.267578 20.564453 C 14.267578 20.564453 12.283094 20.991656 11.871094 19.722656 C 11.871094 19.722656 11.547891 18.905406 11.087891 18.691406 C 11.087891 18.691406 10.444766 18.247859 11.134766 18.255859 C 11.134766 18.255859 11.833656 18.312328 12.222656 18.986328 C 12.840656 20.081328 13.878203 19.762078 14.283203 19.580078 C 14.346203 19.128078 14.530328 18.810906 14.736328 18.628906 C 13.157328 18.454906 11.5625 18.224719 11.5625 15.511719 C 11.5625 14.733719 11.776516 14.345703 12.228516 13.845703 C 12.156516 13.662703 11.911781 12.901781 12.300781 11.925781 C 12.895781 11.742781 14.251953 12.6875 14.251953 12.6875 C 14.814953 12.5365 15.424344 12.449219 16.027344 12.449219 C 16.630344 12.449219 17.241688 12.5365 17.804688 12.6875 C 17.804688 12.6875 19.160859 11.743781 19.755859 11.925781 C 20.143859 12.909781 19.897172 13.663703 19.826172 13.845703 C 20.278172 14.345703 20.556641 14.734719 20.556641 15.511719 C 20.556641 18.239719 18.8905 18.454906 17.3125 18.628906 C 17.5745 18.850906 17.796875 19.2715 17.796875 19.9375 C 17.796875 20.8895 17.789062 22.072734 17.789062 22.302734 C 17.789063 22.484734 17.916438 22.705578 18.273438 22.642578 C 21.088437 21.698578 23 19.017766 23 15.884766 C 23 11.974766 19.827203 9 15.908203 9 z M 11.5625 18.486328 C 11.5065 18.470328 11.459359 18.479719 11.443359 18.511719 C 11.427359 18.543719 11.449859 18.589094 11.505859 18.621094 C 11.553859 18.645094 11.609 18.637656 11.625 18.597656 C 11.641 18.565656 11.6185 18.517328 11.5625 18.486328 z M 11.816406 18.722656 C 11.789656 18.716656 11.764141 18.720234 11.744141 18.740234 C 11.704141 18.772234 11.711766 18.834625 11.759766 18.890625 C 11.807766 18.930625 11.870156 18.954062 11.910156 18.914062 C 11.950156 18.882062 11.942531 18.819672 11.894531 18.763672 C 11.870531 18.743672 11.843156 18.728656 11.816406 18.722656 z M 12.113281 19.089844 C 12.084531 19.079844 12.053297 19.081656 12.029297 19.097656 C 11.981297 19.129656 11.981297 19.202625 12.029297 19.265625 C 12.077297 19.328625 12.149453 19.360125 12.189453 19.328125 C 12.236453 19.296125 12.236453 19.216297 12.189453 19.154297 C 12.169453 19.122297 12.142031 19.099844 12.113281 19.089844 z M 12.4375 19.486328 C 12.404875 19.482328 12.375469 19.493578 12.355469 19.517578 C 12.316469 19.557578 12.331531 19.635406 12.394531 19.691406 C 12.457531 19.755406 12.536172 19.764797 12.576172 19.716797 C 12.616172 19.684797 12.593109 19.597016 12.537109 19.541016 C 12.505609 19.509016 12.470125 19.490328 12.4375 19.486328 z M 12.982422 19.802734 C 12.911422 19.786734 12.824594 19.809234 12.808594 19.865234 C 12.792594 19.921234 12.848734 19.985953 12.927734 20.001953 C 12.998734 20.033953 13.085562 20.000312 13.101562 19.945312 C 13.125563 19.890312 13.069422 19.826734 12.982422 19.802734 z M 14.052734 19.828125 C 13.973734 19.844125 13.917781 19.899891 13.925781 19.962891 C 13.933781 20.017891 14.012797 20.049203 14.091797 20.033203 C 14.178797 20.017203 14.23475 19.96225 14.21875 19.90625 C 14.21075 19.85025 14.132734 19.819125 14.052734 19.828125 z M 13.529297 19.890625 C 13.441297 19.890625 13.378906 19.938141 13.378906 19.994141 C 13.378906 20.057141 13.442109 20.105656 13.537109 20.097656 C 13.625109 20.097656 13.6875 20.050141 13.6875 19.994141 C 13.6875 19.930141 13.609297 19.882625 13.529297 19.890625 z"
              style="fill: #fcfcfa"/>
    </symbol>

    <symbol id="gscholar" viewBox="0 0 32 32">
        <path d="M 14.129954,8.6479009 8.6479011,12.953324 h 3.5351549 c 0.256169,2.061106 2.100599,2.931351 3.996263,3.068758 -0.35864,0.824443 -0.204936,1.236664 0.35864,1.786292 -2.20307,0.0458 -5.277118,1.190862 -5.277118,3.06876 0.204935,2.061108 3.227749,2.473326 4.713542,2.473326 1.946895,0.0458 4.149965,-0.870243 4.611072,-2.473326 0.204934,-1.603084 -0.512341,-2.473328 -1.588258,-3.251969 -1.178387,-0.824442 -1.434556,-1.282466 -1.075919,-1.832095 0.768513,-0.77864 1.793196,-1.236663 1.998134,-2.33592 0.102468,-0.778641 -0.102471,-1.282467 -0.307406,-1.969503 l 2.305537,-1.740489 -0.05123,0.732837 c -0.153705,0.0916 -0.256173,0.274814 -0.256173,0.412222 v 4.717644 c 0.102468,0.595431 1.127151,0.503826 1.178387,0 v -4.717644 c 0,-0.137408 -0.10247,-0.320617 -0.256172,-0.366419 V 9.3807392 l 0.819746,-0.7328383 z m 2.97158,6.4581331 c -3.125282,0.458025 -4.45737,-3.984805 -1.946899,-4.534434 2.869114,-0.503826 4.252436,3.939004 1.946899,4.534434 z m -0.256173,3.343573 c 3.074051,0.595432 3.125285,2.88555 0.512341,3.572588 -2.2543,0.412218 -4.201197,-0.183212 -4.149964,-1.374075 0,-1.145057 1.793196,-2.198513 3.637623,-2.198513 z" style="fill: #fcfcfa; stroke-width:0.0484421" />
        <path d="M 5,5.0000002 V 27 H 27 V 5.0000002 Z m 2,2 H 25 V 25 H 7 Z" style="fill: #fcfcfa"/>
    </symbol>

    <symbol id="regate" viewBox="0 0 32 32">
        <path d="M 5 5 L 5 27 L 27 27 L 27 5 L 5 5 z M 7 7 L 25 7 L 25 25 L 7 25 L 7 7 z M 19.164062 10.001953 C 17.881062 10.001953 17.441406 10.919156 17.441406 11.535156 L 17.441406 13.169922 C 17.441406 13.999922 17.8935 14.792969 19.0625 14.792969 C 21.0245 14.790969 20.787109 13.306391 20.787109 12.275391 L 19.253906 12.275391 L 19.253906 12.816406 L 20.158203 12.816406 C 20.158203 13.621406 19.781453 14.162109 19.064453 14.162109 C 18.498453 14.162109 18.171875 13.671188 18.171875 12.992188 L 18.171875 11.634766 C 18.171875 11.005766 18.762062 10.642578 19.164062 10.642578 C 19.881062 10.642578 20.15625 11.271484 20.15625 11.271484 L 20.697266 10.90625 C 20.697266 10.90625 20.434062 10.001953 19.164062 10.001953 z M 13.583984 13.091797 C 12.678984 13.091797 11.296953 13.178906 10.001953 13.128906 L 10.001953 13.53125 C 10.781953 13.68225 11.107422 13.606281 11.107422 14.738281 L 11.107422 20.269531 C 11.107422 21.413531 10.780953 21.325563 10.001953 21.476562 L 10.001953 21.892578 C 10.378953 21.879578 11.031266 21.841797 11.697266 21.841797 C 12.326266 21.841797 13.144094 21.867578 13.496094 21.892578 L 13.496094 21.476562 C 12.490094 21.338562 12.1875 21.451531 12.1875 20.269531 L 12.1875 17.931641 C 12.5275 17.956641 12.817531 17.955078 13.269531 17.955078 C 14.124531 19.489078 14.94125 20.634781 15.40625 21.175781 C 16.24825 22.193781 17.594875 22.043578 17.921875 21.892578 L 17.921875 21.515625 C 17.418875 21.514625 16.914781 21.175437 16.550781 20.773438 C 15.934781 20.107437 15.104781 19.025641 14.425781 17.806641 C 15.557781 17.529641 16.400391 16.461297 16.400391 15.404297 C 16.400391 13.820297 15.179984 13.091797 13.583984 13.091797 z M 13.320312 13.730469 C 14.502313 13.730469 15.205078 14.346516 15.205078 15.478516 C 15.204078 16.586516 14.450359 17.326172 13.193359 17.326172 C 12.728359 17.326172 12.5145 17.314063 12.1875 17.289062 L 12.1875 13.767578 C 12.5145 13.729578 12.942312 13.730469 13.320312 13.730469 z"
              style="fill: #fcfcfa"/>
    </symbol>

    <symbol id="lastfm" viewBox="0 0 32 32">
        <path d="M 5 5 L 5 27 L 27 27 L 27 5 L 5 5 z M 7 7 L 25 7 L 25 25 L 7 25 L 7 7 z M 12.611328 12.107422 C 10.251328 12.107422 9 13.601719 9 16.136719 C 9 18.574719 10.251047 19.892578 12.498047 19.892578 C 14.310047 19.892578 15.177734 19.042969 15.177734 19.042969 L 14.666016 17.646484 C 14.666016 17.646484 13.834031 18.578125 12.582031 18.578125 C 11.474031 18.578125 10.685547 17.615219 10.685547 16.074219 C 10.685547 14.100219 11.679156 13.396484 12.660156 13.396484 C 14.477156 13.396484 14.703969 14.852937 15.417969 17.085938 C 15.929969 18.639938 16.894922 19.892578 19.669922 19.892578 C 21.656922 19.892578 23.004 19.283734 23 17.677734 C 23 15.685734 21.288422 15.470156 19.857422 15.160156 C 19.152422 14.998156 18.941406 14.710516 18.941406 14.228516 C 18.941406 13.681516 19.375078 13.361328 20.080078 13.361328 C 20.850078 13.361328 21.266031 13.649797 21.332031 14.341797 L 22.939453 14.148438 C 22.812453 12.703437 21.818641 12.109375 20.181641 12.109375 C 18.741641 12.109375 17.326172 12.651344 17.326172 14.402344 C 17.326172 15.492344 17.8565 16.183906 19.1875 16.503906 C 20.4175 16.792906 21.371094 16.884859 21.371094 17.755859 C 21.371094 18.350859 20.793125 18.591797 19.703125 18.591797 C 18.083125 18.591797 17.410391 17.741359 17.025391 16.568359 C 16.149391 13.919359 15.829328 12.107422 12.611328 12.107422 z"
              style="fill: #fcfcfa"/>
    </symbol>

    <symbol id="linkedin" viewBox="0 0 32 32">
        <path d="M 7.5 5 C 6.132813 5 5 6.132813 5 7.5 L 5 24.5 C 5 25.867188 6.132813 27 7.5 27 L 24.5 27 C 25.867188 27 27 25.867188 27 24.5 L 27 7.5 C 27 6.132813 25.867188 5 24.5 5 Z M 7.5 7 L 24.5 7 C 24.785156 7 25 7.214844 25 7.5 L 25 24.5 C 25 24.785156 24.785156 25 24.5 25 L 7.5 25 C 7.214844 25 7 24.785156 7 24.5 L 7 7.5 C 7 7.214844 7.214844 7 7.5 7 Z M 10.4375 8.71875 C 9.488281 8.71875 8.71875 9.488281 8.71875 10.4375 C 8.71875 11.386719 9.488281 12.15625 10.4375 12.15625 C 11.386719 12.15625 12.15625 11.386719 12.15625 10.4375 C 12.15625 9.488281 11.386719 8.71875 10.4375 8.71875 Z M 19.46875 13.28125 C 18.035156 13.28125 17.082031 14.066406 16.6875 14.8125 L 16.625 14.8125 L 16.625 13.5 L 13.8125 13.5 L 13.8125 23 L 16.75 23 L 16.75 18.3125 C 16.75 17.074219 16.996094 15.875 18.53125 15.875 C 20.042969 15.875 20.0625 17.273438 20.0625 18.375 L 20.0625 23 L 23 23 L 23 17.78125 C 23 15.226563 22.457031 13.28125 19.46875 13.28125 Z M 9 13.5 L 9 23 L 11.96875 23 L 11.96875 13.5 Z"
              style="fill: #fcfcfa"/>
    </symbol>

    <symbol id="music" viewBox="0 0 16 8">
    <path
        fill="#fcfcfa"
        d="M 12,0 11.604166,0.082581 6.2708334,1.0735487 5.9999996,1.1148362 V 5.5432245 C 5.8020833,5.4283858 5.5781249,5.3574179 5.3333332,5.3574179 c -0.7330733,0 -1.3333336,0.5948389 -1.3333336,1.3212912 C 3.9999996,7.4051606 4.6002599,8 5.3333332,8 6.0664057,8 6.6666661,7.4051606 6.6666661,6.6787091 V 2.983224 L 11.333333,2.116127 V 4.5522568 C 11.135416,4.437418 10.911458,4.3664502 10.666667,4.3664502 c -0.7330735,0 -1.3333336,0.5948388 -1.3333336,1.3212903 0,0.7264523 0.6002601,1.3212912 1.3333336,1.3212912 C 11.399739,7.0090317 12,6.4141928 12,5.6877405 Z M 11.333333,0.794839 V 1.4554841 L 6.6666661,2.3225819 v -0.660646 z m -0.666666,4.2322594 c 0.372395,0 0.666666,0.2916132 0.666666,0.6606453 0,0.3690326 -0.294271,0.6606458 -0.666666,0.6606458 -0.372396,0 -0.6666671,-0.2916132 -0.6666671,-0.6606458 0,-0.3690321 0.2942711,-0.6606453 0.6666671,-0.6606453 z M 5.3333332,6.018067 c 0.3723962,0 0.6666664,0.2916132 0.6666664,0.6606452 0,0.3690328 -0.2942702,0.6606451 -0.6666664,0.6606451 -0.3723962,0 -0.6666672,-0.2916123 -0.6666672,-0.6606451 0,-0.369032 0.294271,-0.6606452 0.6666672,-0.6606452 z"/>
    </symbol>
  </defs>
</svg>
